<?xml version="1.0" encoding="UTF-8" standalone="no"?><!DOCTYPE svg PUBLIC "-//W3C//DTD SVG 1.1//EN" "http://www.w3.org/Graphics/SVG/1.1/DTD/svg11.dtd"><svg width="100%" height="100%" viewBox="0 0 3491 3126" version="1.1" xmlns="http://www.w3.org/2000/svg" xmlns:xlink="http://www.w3.org/1999/xlink" xml:space="preserve" xmlns:serif="http://www.serif.com/" style="fill-rule:evenodd;clip-rule:evenodd;stroke-linejoin:round;stroke-miterlimit:2;"><g><path d="M1414.35,1173.7l-682.704,-914.652l105.867,-117.113l769.691,588.717c0,-0 13.501,272.635 0.906,346.871c-6.622,39.034 -73.616,52.883 -118.736,67.941c-28.798,9.61 -75.024,28.236 -75.024,28.236Z" style="fill:url(#_Radial1);"/><path d="M0,1076l105.817,-108.36l349.567,292.333l631.742,421.363c0,0 -35.55,13.789 -117.536,17.668c-123.582,5.847 -314.198,-21.452 -462.63,-78.234c-145.152,-55.528 -363.689,-213.185 -363.689,-213.185l76.023,-75.258l-219.294,-256.327Z" style="fill:url(#_Radial2);"/><path d="M942.569,2291.01l73.043,77.016l557.825,-493.531c0,-0 0.523,-50.51 -5.73,-82.804c-3.576,-18.469 3.159,-24.501 -22.921,-51.573c-26.488,-27.495 -28.736,-29.511 -47.753,-34c-24.004,-5.667 -89.585,-9.073 -89.585,-9.073l-464.879,593.965Z" style="fill:url(#_Radial3);"/><path d="M1569.88,554.337c9.147,-224.733 80.616,-556.31 119.288,-554.328c33.932,1.739 209.964,190.315 297.799,357.86c66.737,127.301 97.933,229.967 103.713,316.363c8.165,122.026 -30.263,413.898 32.83,456.637c70.614,47.834 611.842,7.177 794.638,23.13c103.187,9.006 151.261,10.024 302.138,72.591c131.963,54.723 269.825,174.615 269.825,174.615c-0,-0 -143.632,141.91 -335.969,209.101c-129.106,45.102 -283.511,74.757 -428.824,88.188c-165.321,15.281 -567.393,-34.827 -612.067,29.147c-58.618,83.94 10.517,495.849 -20.985,682.017c-25.934,153.26 -107.224,319.745 -168.027,434.991c-50.285,95.309 -156.69,209.851 -196.794,256.485c-10.792,12.548 -32.644,27.514 -43.836,23.317c-11.192,-4.197 -19.786,-30.913 -23.317,-48.499c-16.477,-82.076 -60.157,-336.851 -75.547,-443.953c-9.451,-65.78 -15.227,-132.222 -16.788,-198.66c-2.953,-125.755 28.492,-604.926 -29.95,-696.961c-41.889,-65.968 -568.71,-37.396 -568.71,-37.396l-535.9,-455.621c-0,-0 213.488,-77.778 379.158,-90.253c161.004,-12.124 629.537,38.827 734.941,-42.151c63.889,-49.084 15.931,-398.072 22.384,-556.62Z" style="fill:url(#_Radial4);"/></g><defs><radialGradient id="_Radial1" cx="0" cy="0" r="1" gradientUnits="userSpaceOnUse" gradientTransform="matrix(841.87,0,0,1008.39,731.645,646.135)"><stop offset="0" style="stop-color:#fff;stop-opacity:1"/><stop offset="0.25" style="stop-color:#ffbdbd;stop-opacity:1"/><stop offset="1" style="stop-color:#ff6b6b;stop-opacity:1"/></radialGradient><radialGradient id="_Radial2" cx="0" cy="0" r="1" gradientUnits="userSpaceOnUse" gradientTransform="matrix(487.125,0,0,368.677,487.125,1336.31)"><stop offset="0" style="stop-color:#ffc8da;stop-opacity:1"/><stop offset="1" style="stop-color:#ff6b6b;stop-opacity:1"/></radialGradient><radialGradient id="_Radial3" cx="0" cy="0" r="1" gradientUnits="userSpaceOnUse" gradientTransform="matrix(630.879,0,0,670.981,942.569,2032.54)"><stop offset="0" style="stop-color:#fff;stop-opacity:1"/><stop offset="0.12" style="stop-color:#ffadad;stop-opacity:1"/><stop offset="0.25" style="stop-color:#ff9393;stop-opacity:1"/><stop offset="1" style="stop-color:#ff6b6b;stop-opacity:1"/></radialGradient><radialGradient id="_Radial4" cx="0" cy="0" r="1" gradientUnits="userSpaceOnUse" gradientTransform="matrix(3056.71,0,0,3125.17,433.392,1562.59)"><stop offset="0" style="stop-color:#6bffff;stop-opacity:1"/><stop offset="0.2" style="stop-color:#40caff;stop-opacity:1"/><stop offset="0.42" style="stop-color:#1494ff;stop-opacity:1"/><stop offset="1" style="stop-color:#007bff;stop-opacity:1"/></radialGradient></defs></svg>