<?xml version="1.0" encoding="UTF-8" standalone="no"?><!DOCTYPE svg PUBLIC "-//W3C//DTD SVG 1.1//EN" "http://www.w3.org/Graphics/SVG/1.1/DTD/svg11.dtd"><svg width="100%" height="100%" viewBox="0 0 1689 1689" version="1.1" xmlns="http://www.w3.org/2000/svg" xmlns:xlink="http://www.w3.org/1999/xlink" xml:space="preserve" xmlns:serif="http://www.serif.com/" style="fill-rule:evenodd;clip-rule:evenodd;stroke-linejoin:round;stroke-miterlimit:2;"><g><path d="M1688.73,422.182l-0,844.363c-0,233.008 -189.174,422.182 -422.182,422.182l-844.363,-0c-233.009,-0 -422.182,-189.174 -422.182,-422.182l0,-844.363c0,-233.009 189.173,-422.182 422.182,-422.182l844.363,0c233.008,0 422.182,189.173 422.182,422.182Z" style="fill:url(#_Radial1);"/><path d="M151.162,752.173c-28.925,-25.634 -47.168,-63.057 -47.168,-104.707c0,-47.043 23.273,-88.693 58.924,-114.054c-4.701,-13.991 -7.25,-28.967 -7.25,-44.533c0,-77.2 62.677,-139.877 139.878,-139.877c4.271,-0 8.498,0.192 12.672,0.567c20.653,-51.483 71.049,-87.879 129.878,-87.879c24.658,0 47.834,6.394 67.96,17.613c24.167,-19.907 55.12,-31.868 88.845,-31.868c64.471,0 118.813,43.712 134.981,103.09c3.279,2.21 6.479,4.466 9.599,6.763c58.957,7.617 106.456,52.002 118.723,109.379c14.041,-47.028 52.179,-83.705 100.059,-95.679c2.594,-2.238 5.252,-4.45 7.975,-6.631c20.963,-50.822 71.018,-86.63 129.37,-86.63c25.458,-0 49.337,6.816 69.909,18.721c24.63,-21.634 56.915,-34.758 92.241,-34.758c52.952,0 99.071,29.487 122.819,72.922c7.013,-1.084 14.198,-1.647 21.513,-1.647c77.201,0 139.878,62.677 139.878,139.877c-0,17.557 -3.242,34.362 -9.159,49.85c31.667,25.654 51.924,64.848 51.924,108.737c-0,27.73 -8.087,53.586 -22.028,75.336c-0.151,4.599 -0.386,9.182 -0.701,13.751c8.451,18.009 13.175,38.109 13.175,59.303c0,50.564 -26.887,94.897 -67.132,119.471c-1.93,3.622 -3.903,7.229 -5.918,10.823c1.588,8.431 2.419,17.128 2.419,26.017c0,59.043 -36.661,109.591 -88.441,130.102c-7.188,56.346 -47.954,102.265 -101.574,117.031c-23.781,43.321 -69.837,72.714 -122.704,72.714c-4.467,-0 -8.885,-0.21 -13.245,-0.621c-8.377,69.219 -67.395,122.926 -138.858,122.926c-5.266,0 -10.465,-0.291 -15.581,-0.86c-24.942,38.429 -68.232,63.87 -117.416,63.87c-24.772,-0 -48.049,-6.454 -68.239,-17.77c-13.844,4.592 -28.643,7.078 -44.019,7.078c-66.596,0 -122.384,-46.64 -136.454,-109.01c-10.53,2.536 -21.521,3.88 -32.824,3.88c-67.381,-0 -123.698,-47.747 -136.935,-111.223c-4.775,0.493 -9.62,0.746 -14.525,0.746c-66.968,0 -123.007,-47.163 -136.686,-110.057c-59.32,-16.207 -102.976,-70.521 -102.976,-134.95c-0,-7.401 0.576,-14.669 1.686,-21.76c-2.129,-3.236 -4.225,-6.484 -6.287,-9.745c-52.517,-20.15 -89.838,-71.074 -89.838,-130.646c-0,-19.777 4.113,-38.601 11.53,-55.662Z" style="fill:#fff;"/><g><path d="M1000.21,950.622l-0.012,-16.307l-7.887,0.006l0.012,16.307c0.002,2.178 1.768,3.942 3.947,3.94c2.178,-0.002 3.941,-1.768 3.94,-3.946Z" style="fill:#007bff;fill-rule:nonzero;"/><path d="M1073.08,980.663l-0.012,-16.307l-7.886,0.005l0.011,16.307c0.002,2.179 1.769,3.942 3.946,3.941c2.178,-0.002 3.942,-1.768 3.941,-3.946Z" style="fill:#007bff;fill-rule:nonzero;"/><path d="M881.224,1173.53l93.754,27.219l-0.018,-23.763l-69.515,-56.305l-6.086,-15.876l-18.135,68.725Z" style="fill:#007bff;fill-rule:nonzero;"/><path d="M974.972,1195.97l-92.578,-26.88l0.477,-1.804l92.1,26.742l0.001,1.942Z" style="fill:#007bff;fill-rule:nonzero;"/><path d="M841.265,1173.56l-93.713,27.357l-0.018,-23.764l69.433,-56.406l6.062,-15.885l18.236,68.698Z" style="fill:#007bff;fill-rule:nonzero;"/><path d="M747.55,1196.14l92.538,-27.014l-0.479,-1.804l-92.061,26.877l0.002,1.941Z" style="fill:#007bff;fill-rule:nonzero;"/><path d="M875.681,1191.43c11.641,-25.425 26.096,-68.219 26.055,-123.899l-0.315,-429.487c0,-0.28 -0.003,-0.557 -0.007,-0.836c-0.422,-65.194 -18.262,-95.87 -30.166,-109.105c-5.599,-6.227 -15.364,-6.22 -20.954,0.015c-11.884,13.253 -29.679,43.955 -30.005,109.15c-0.003,0.278 -0.007,0.555 -0.006,0.835l0.315,429.487c0.04,55.68 14.558,98.453 26.236,123.861c5.668,12.333 23.198,12.32 28.847,-0.021Z" style="fill:#007bff;fill-rule:nonzero;"/><path d="M866.291,1233.14l-0.087,-118.449c-0.025,-34.627 -4.882,-44.448 -5.035,-44.749l-0,-0.008c-0,-0 -0.002,0.003 -0.002,0.004c-0.002,-0.001 -0.002,-0.004 -0.002,-0.004l0,0.008c-0.153,0.301 -4.997,10.129 -4.971,44.757l0.087,118.448c0.002,2.765 2.244,5.005 5.009,5.003c2.764,-0.002 5.003,-2.245 5.001,-5.01Z" style="fill:#007bff;fill-rule:nonzero;"/><path d="M974.847,789.141c-0.024,-1.233 -1.03,-2.219 -2.262,-2.218l-42.755,0.031c-1.232,0.001 -2.237,0.989 -2.259,2.221c-0.184,10.013 -0.45,51.627 6.965,77.939l33.461,-0.025c7.376,-26.323 7.049,-67.936 6.85,-77.948Z" style="fill:#007bff;fill-rule:nonzero;"/><path d="M974.901,792.827l-47.378,0.034c0.007,-0.789 0.017,-1.509 0.025,-2.155l47.325,-0.035c0.009,0.646 0.019,1.366 0.028,2.156Z" style="fill:#007bff;fill-rule:nonzero;"/><path d="M901.536,794.11l239.824,180.738l0.022,29.694l-192.52,-79.318l-47.23,0.034l-0.096,-131.148Z" style="fill:#007bff;fill-rule:nonzero;"/><path d="M901.619,908.103l-0.001,-1.866l51.03,-0.037l0.193,0.092l188.535,90.879l0.002,2.072l-189.156,-91.177l-50.603,0.037Z" style="fill:#007bff;fill-rule:nonzero;"/><path d="M901.545,806.22l239.823,179.188l-0.008,-10.56l-239.824,-180.738l0.009,12.11Z" style="fill:#007bff;fill-rule:nonzero;"/><path d="M901.545,806.22l239.823,179.188l4.511,-7.155l-244.343,-184.143l0.009,12.11Z" style="fill:#007bff;fill-rule:nonzero;"/><path d="M1145.88,978.253l-4.511,7.155l0.017,23.343c0.002,2.926 1.796,5.553 4.521,6.621l-0.027,-37.119Z" style="fill:#007bff;fill-rule:nonzero;"/><path d="M721.956,950.826l-0.012,-16.307l7.886,-0.006l0.012,16.307c0.002,2.178 -1.762,3.945 -3.94,3.946c-2.177,0.002 -3.945,-1.762 -3.946,-3.94Z" style="fill:#007bff;fill-rule:nonzero;"/><path d="M649.124,980.973l-0.012,-16.306l7.887,-0.006l0.012,16.307c0.001,2.178 -1.764,3.944 -3.941,3.946c-2.178,0.001 -3.944,-1.762 -3.946,-3.941Z" style="fill:#007bff;fill-rule:nonzero;"/><path d="M794.356,789.273c-0.025,-1.233 -1.031,-2.219 -2.264,-2.218l-42.754,0.031c-1.233,0.001 -2.237,0.989 -2.261,2.222c-0.182,10.012 -0.448,51.626 6.966,77.938l33.461,-0.024c7.376,-26.323 7.049,-67.937 6.852,-77.949Z" style="fill:#007bff;fill-rule:nonzero;"/><path d="M747.03,792.994l47.378,-0.035c-0.008,-0.789 -0.019,-1.509 -0.028,-2.155l-47.325,0.034c-0.008,0.646 -0.017,1.366 -0.025,2.156Z" style="fill:#007bff;fill-rule:nonzero;"/><path d="M820.397,794.169l-239.56,181.09l0.022,29.694l192.404,-79.601l47.23,-0.034l-0.096,-131.149Z" style="fill:#007bff;fill-rule:nonzero;"/><path d="M820.481,908.162l-0.002,-1.865l-51.029,0.037l-0.193,0.093l-188.403,91.155l0.001,2.072l189.023,-91.455l50.603,-0.037Z" style="fill:#007bff;fill-rule:nonzero;"/><path d="M820.404,806.279l-239.559,179.54l-0.008,-10.56l239.56,-181.09l0.007,12.11Z" style="fill:#007bff;fill-rule:nonzero;"/><path d="M820.404,806.279l-239.559,179.54l-4.52,-7.149l244.072,-184.501l0.007,12.11Z" style="fill:#007bff;fill-rule:nonzero;"/><path d="M580.862,1009.16l-0.017,-23.343l-4.52,-7.149l0.027,37.119c2.723,-1.071 4.512,-3.701 4.51,-6.627Z" style="fill:#007bff;fill-rule:nonzero;"/></g></g><defs><radialGradient id="_Radial1" cx="0" cy="0" r="1" gradientUnits="userSpaceOnUse" gradientTransform="matrix(1688.73,0,0,1688.73,1.13687e-13,844.363)"><stop offset="0" style="stop-color:#ff6b6b;stop-opacity:1"/><stop offset="0.48" style="stop-color:#fa6b6b;stop-opacity:1"/><stop offset="1" style="stop-color:#ee6b6b;stop-opacity:1"/></radialGradient></defs></svg>